# xmcd
#
# Track frame offsets:
#	150
#	15397
#	39121
#	60135
#	80439
#	96549
#	113494
#	130450
#	156702
#	173962
#	189969
#	209535
#
# Disc length: 3023 seconds
#
# Revision: 0
# Processed by: cddbd v1.4PL0 Copyright (c) Steve Scherf et al.
# Submitted via: dBpowerAMP V4.0
#
DISCID=970bcd0c
DTITLE=The All Purpose Blues Band - Live in new
DYEAR=1900
DGENRE=Blues
TTITLE0=Little red rooster
TTITLE1=I'll play the blues for you
TTITLE2=Wonderfull world
TTITLE3=One way out
TTITLE4=Don't let the green gras faal ya
TTITLE5=Walking the dog
TTITLE6=24 hours
TTITLE7=Ain't no sunshine
TTITLE8=Blind, cripple and crazy
TTITLE9=Looking good
TTITLE10=Slip away
TTITLE11=Pride and joy
EXTD=
EXTT0=
EXTT1=
EXTT2=
EXTT3=
EXTT4=
EXTT5=
EXTT6=
EXTT7=
EXTT8=
EXTT9=
EXTT10=
EXTT11=
PLAYORDER=
